<mxfile host="app.diagrams.net" agent="Mozilla/5.0 (Windows NT 10.0; Win64; x64) AppleWebKit/537.36 (KHTML, like Gecko) Chrome/135.0.0.0 Safari/537.36" version="26.2.8">
  <diagram id="C5RBs43oDa-KdzZeNtuy" name="Page-1">
    <mxGraphModel dx="1491" dy="1972" grid="1" gridSize="10" guides="1" tooltips="1" connect="1" arrows="1" fold="1" page="1" pageScale="1" pageWidth="827" pageHeight="1169" math="0" shadow="0">
      <root>
        <mxCell id="WIyWlLk6GJQsqaUBKTNV-0" />
        <mxCell id="WIyWlLk6GJQsqaUBKTNV-1" parent="WIyWlLk6GJQsqaUBKTNV-0" />
        <mxCell id="zxXiCDNfmofHqMb3xaW2-5" value="" style="edgeStyle=entityRelationEdgeStyle;fontSize=12;html=1;endArrow=ERoneToMany;rounded=0;entryX=0;entryY=0.75;entryDx=0;entryDy=0;" edge="1" parent="WIyWlLk6GJQsqaUBKTNV-1" target="zxXiCDNfmofHqMb3xaW2-9">
          <mxGeometry width="100" height="100" relative="1" as="geometry">
            <mxPoint x="180" y="280" as="sourcePoint" />
            <mxPoint x="280" y="180" as="targetPoint" />
          </mxGeometry>
        </mxCell>
        <mxCell id="zxXiCDNfmofHqMb3xaW2-6" value="Instituto" style="swimlane;childLayout=stackLayout;horizontal=1;startSize=50;horizontalStack=0;rounded=1;fontSize=14;fontStyle=0;strokeWidth=2;resizeParent=0;resizeLast=1;shadow=0;dashed=0;align=center;arcSize=4;whiteSpace=wrap;html=1;" vertex="1" parent="WIyWlLk6GJQsqaUBKTNV-1">
          <mxGeometry x="20" y="220" width="160" height="120" as="geometry" />
        </mxCell>
        <mxCell id="zxXiCDNfmofHqMb3xaW2-7" value="Id_Instituto&lt;br&gt;&lt;br&gt;&lt;div&gt;Nombre&lt;/div&gt;" style="align=left;strokeColor=none;fillColor=none;spacingLeft=4;spacingRight=4;fontSize=12;verticalAlign=top;resizable=0;rotatable=0;part=1;html=1;whiteSpace=wrap;" vertex="1" parent="zxXiCDNfmofHqMb3xaW2-6">
          <mxGeometry y="50" width="160" height="70" as="geometry" />
        </mxCell>
        <mxCell id="zxXiCDNfmofHqMb3xaW2-8" value="Carrera" style="swimlane;childLayout=stackLayout;horizontal=1;startSize=50;horizontalStack=0;rounded=1;fontSize=14;fontStyle=0;strokeWidth=2;resizeParent=0;resizeLast=1;shadow=0;dashed=0;align=center;arcSize=4;whiteSpace=wrap;html=1;" vertex="1" parent="WIyWlLk6GJQsqaUBKTNV-1">
          <mxGeometry x="240" y="60" width="160" height="150" as="geometry" />
        </mxCell>
        <mxCell id="zxXiCDNfmofHqMb3xaW2-9" value="Id_Carrera&lt;div&gt;&lt;br&gt;&lt;div&gt;Nombre&lt;/div&gt;&lt;div&gt;&lt;br&gt;&lt;/div&gt;&lt;div&gt;Id_Instituto&lt;br&gt;&lt;br&gt;&lt;/div&gt;&lt;/div&gt;" style="align=left;strokeColor=none;fillColor=none;spacingLeft=4;spacingRight=4;fontSize=12;verticalAlign=top;resizable=0;rotatable=0;part=1;html=1;whiteSpace=wrap;" vertex="1" parent="zxXiCDNfmofHqMb3xaW2-8">
          <mxGeometry y="50" width="160" height="100" as="geometry" />
        </mxCell>
        <mxCell id="zxXiCDNfmofHqMb3xaW2-12" value="" style="edgeStyle=entityRelationEdgeStyle;fontSize=12;html=1;endArrow=ERoneToMany;rounded=0;entryX=-0.009;entryY=0.588;entryDx=0;entryDy=0;entryPerimeter=0;" edge="1" parent="WIyWlLk6GJQsqaUBKTNV-1">
          <mxGeometry width="100" height="100" relative="1" as="geometry">
            <mxPoint x="400" y="120" as="sourcePoint" />
            <mxPoint x="568.56" y="398.8000000000002" as="targetPoint" />
          </mxGeometry>
        </mxCell>
        <mxCell id="zxXiCDNfmofHqMb3xaW2-13" value="Alumno" style="swimlane;childLayout=stackLayout;horizontal=1;startSize=50;horizontalStack=0;rounded=1;fontSize=14;fontStyle=0;strokeWidth=2;resizeParent=0;resizeLast=1;shadow=0;dashed=0;align=center;arcSize=4;whiteSpace=wrap;html=1;" vertex="1" parent="WIyWlLk6GJQsqaUBKTNV-1">
          <mxGeometry x="570" y="-320" width="160" height="240" as="geometry" />
        </mxCell>
        <mxCell id="zxXiCDNfmofHqMb3xaW2-14" value="DNI_ALumno&lt;div&gt;&lt;br&gt;&lt;/div&gt;&lt;div&gt;Nombre&lt;/div&gt;&lt;div&gt;&lt;br&gt;&lt;/div&gt;&lt;div&gt;Apellido&lt;/div&gt;&lt;div&gt;&lt;br&gt;&lt;/div&gt;&lt;div&gt;Id_Carrera&lt;/div&gt;&lt;div&gt;&lt;br&gt;&lt;/div&gt;&lt;div&gt;AÃ±o&lt;/div&gt;&lt;div&gt;&lt;br&gt;&lt;/div&gt;&lt;div&gt;Id_Direccion&lt;/div&gt;" style="align=left;strokeColor=none;fillColor=none;spacingLeft=4;spacingRight=4;fontSize=12;verticalAlign=top;resizable=0;rotatable=0;part=1;html=1;whiteSpace=wrap;" vertex="1" parent="zxXiCDNfmofHqMb3xaW2-13">
          <mxGeometry y="50" width="160" height="190" as="geometry" />
        </mxCell>
        <mxCell id="zxXiCDNfmofHqMb3xaW2-16" value="" style="edgeStyle=entityRelationEdgeStyle;fontSize=12;html=1;endArrow=ERoneToMany;rounded=0;entryX=0;entryY=0.5;entryDx=0;entryDy=0;" edge="1" parent="WIyWlLk6GJQsqaUBKTNV-1" target="zxXiCDNfmofHqMb3xaW2-14">
          <mxGeometry width="100" height="100" relative="1" as="geometry">
            <mxPoint x="400" y="125" as="sourcePoint" />
            <mxPoint x="530" y="-220" as="targetPoint" />
          </mxGeometry>
        </mxCell>
        <mxCell id="zxXiCDNfmofHqMb3xaW2-32" value="Direccion" style="swimlane;childLayout=stackLayout;horizontal=1;startSize=50;horizontalStack=0;rounded=1;fontSize=14;fontStyle=0;strokeWidth=2;resizeParent=0;resizeLast=1;shadow=0;dashed=0;align=center;arcSize=4;whiteSpace=wrap;html=1;" vertex="1" parent="WIyWlLk6GJQsqaUBKTNV-1">
          <mxGeometry x="827" y="-320" width="160" height="240" as="geometry" />
        </mxCell>
        <mxCell id="zxXiCDNfmofHqMb3xaW2-33" value="Id_Direccion&lt;div&gt;&lt;br&gt;&lt;/div&gt;&lt;div&gt;Id_Localidad&lt;/div&gt;&lt;div&gt;&lt;br&gt;&lt;/div&gt;&lt;div&gt;Barrio&lt;/div&gt;&lt;div&gt;&lt;br&gt;&lt;/div&gt;&lt;div&gt;Calle&lt;/div&gt;&lt;div&gt;&lt;br&gt;&lt;/div&gt;&lt;div&gt;Altura&lt;/div&gt;&lt;div&gt;&lt;br&gt;&lt;/div&gt;&lt;div&gt;Zona&lt;/div&gt;" style="align=left;strokeColor=none;fillColor=none;spacingLeft=4;spacingRight=4;fontSize=12;verticalAlign=top;resizable=0;rotatable=0;part=1;html=1;whiteSpace=wrap;" vertex="1" parent="zxXiCDNfmofHqMb3xaW2-32">
          <mxGeometry y="50" width="160" height="190" as="geometry" />
        </mxCell>
        <mxCell id="zxXiCDNfmofHqMb3xaW2-34" value="Localidad" style="swimlane;childLayout=stackLayout;horizontal=1;startSize=50;horizontalStack=0;rounded=1;fontSize=14;fontStyle=0;strokeWidth=2;resizeParent=0;resizeLast=1;shadow=0;dashed=0;align=center;arcSize=4;whiteSpace=wrap;html=1;" vertex="1" parent="WIyWlLk6GJQsqaUBKTNV-1">
          <mxGeometry x="1081" y="-260" width="160" height="140" as="geometry" />
        </mxCell>
        <mxCell id="zxXiCDNfmofHqMb3xaW2-35" value="Id_Localidad&lt;div&gt;&lt;br&gt;&lt;/div&gt;&lt;div&gt;Nombre&lt;/div&gt;&lt;div&gt;&lt;br&gt;&lt;/div&gt;&lt;div&gt;Id_Departamento&lt;/div&gt;" style="align=left;strokeColor=none;fillColor=none;spacingLeft=4;spacingRight=4;fontSize=12;verticalAlign=top;resizable=0;rotatable=0;part=1;html=1;whiteSpace=wrap;" vertex="1" parent="zxXiCDNfmofHqMb3xaW2-34">
          <mxGeometry y="50" width="160" height="90" as="geometry" />
        </mxCell>
        <mxCell id="zxXiCDNfmofHqMb3xaW2-36" value="" style="edgeStyle=entityRelationEdgeStyle;fontSize=12;html=1;endArrow=ERoneToMany;rounded=0;exitX=0.995;exitY=0.177;exitDx=0;exitDy=0;exitPerimeter=0;" edge="1" parent="WIyWlLk6GJQsqaUBKTNV-1" source="zxXiCDNfmofHqMb3xaW2-33">
          <mxGeometry width="100" height="100" relative="1" as="geometry">
            <mxPoint x="980.5" y="-100" as="sourcePoint" />
            <mxPoint x="1080.5" y="-200" as="targetPoint" />
          </mxGeometry>
        </mxCell>
        <mxCell id="zxXiCDNfmofHqMb3xaW2-38" value="Departamento" style="swimlane;childLayout=stackLayout;horizontal=1;startSize=50;horizontalStack=0;rounded=1;fontSize=14;fontStyle=0;strokeWidth=2;resizeParent=0;resizeLast=1;shadow=0;dashed=0;align=center;arcSize=4;whiteSpace=wrap;html=1;" vertex="1" parent="WIyWlLk6GJQsqaUBKTNV-1">
          <mxGeometry x="1320" y="-340" width="160" height="120" as="geometry" />
        </mxCell>
        <mxCell id="zxXiCDNfmofHqMb3xaW2-39" value="Id_Departamento&lt;div&gt;&lt;br&gt;&lt;/div&gt;&lt;div&gt;Nombre&lt;/div&gt;" style="align=left;strokeColor=none;fillColor=none;spacingLeft=4;spacingRight=4;fontSize=12;verticalAlign=top;resizable=0;rotatable=0;part=1;html=1;whiteSpace=wrap;" vertex="1" parent="zxXiCDNfmofHqMb3xaW2-38">
          <mxGeometry y="50" width="160" height="70" as="geometry" />
        </mxCell>
        <mxCell id="zxXiCDNfmofHqMb3xaW2-40" value="" style="edgeStyle=entityRelationEdgeStyle;fontSize=12;html=1;endArrow=ERoneToMany;rounded=0;exitX=1;exitY=0.75;exitDx=0;exitDy=0;" edge="1" parent="WIyWlLk6GJQsqaUBKTNV-1" source="zxXiCDNfmofHqMb3xaW2-35">
          <mxGeometry width="100" height="100" relative="1" as="geometry">
            <mxPoint x="1220" y="-180" as="sourcePoint" />
            <mxPoint x="1320" y="-280" as="targetPoint" />
          </mxGeometry>
        </mxCell>
        <mxCell id="zxXiCDNfmofHqMb3xaW2-41" value="" style="edgeStyle=entityRelationEdgeStyle;fontSize=12;html=1;endArrow=ERoneToMany;rounded=0;entryX=1.015;entryY=0.845;entryDx=0;entryDy=0;entryPerimeter=0;exitX=0.009;exitY=0.075;exitDx=0;exitDy=0;exitPerimeter=0;" edge="1" parent="WIyWlLk6GJQsqaUBKTNV-1" source="zxXiCDNfmofHqMb3xaW2-33" target="zxXiCDNfmofHqMb3xaW2-14">
          <mxGeometry width="100" height="100" relative="1" as="geometry">
            <mxPoint x="690" y="50" as="sourcePoint" />
            <mxPoint x="790" y="-50" as="targetPoint" />
          </mxGeometry>
        </mxCell>
      </root>
    </mxGraphModel>
  </diagram>
</mxfile>
